<?xml version="1.0" encoding="UTF-8" standalone="no"?>
<svg xmlns="http://www.w3.org/2000/svg" xmlns:xlink="http://www.w3.org/1999/xlink" style="isolation:isolate" viewBox="236.048 956.148 862.634 748.497" width="862.634pt" height="748.497pt"><g><path d=" M 791 1701.1 C 790.2 1700.6 787.1 1699.2 784.1 1698 C 772.1 1693.1 769.7 1685.9 776.9 1675.9 C 780.6 1670.8 785.9 1666 787.8 1666 C 788.3 1666 791.3 1664.9 794.4 1663.5 C 797.5 1662.1 801.1 1661 802.3 1661 C 803.6 1661 805.5 1660.3 806.6 1659.5 C 807.9 1658.5 811.2 1658.1 817.3 1658 C 822.1 1658 832 1657.3 839.3 1656.5 C 846.6 1655.7 854.5 1654.9 857 1654.6 C 864.4 1653.8 869.4 1652.8 870.5 1652 C 871.1 1651.6 873.1 1650.7 875.1 1650.1 C 879.5 1648.7 885 1642.9 885 1639.7 C 885 1638.3 883.3 1634 881.3 1629.9 C 878.1 1623.7 877 1622.4 874.3 1621.7 C 869.9 1620.7 864.2 1617.2 862.9 1614.9 C 862.4 1613.8 861.3 1613 860.5 1613 C 859.7 1613 859 1612.4 859 1611.6 C 859 1610.1 856.9 1609 853.8 1609 C 852 1609 846.8 1606.4 843.5 1603.8 C 837.4 1599.1 831 1592.2 830.5 1590 C 830.2 1588.4 829.3 1586.9 828.6 1586.7 C 827.9 1586.4 826.3 1583.6 825 1580.5 L 822.7 1574.7 L 820.5 1581.1 C 819.3 1584.6 817.9 1588.6 817.3 1590 C 816.7 1591.4 816 1593.9 815.6 1595.5 C 814.7 1599.4 806.5 1608.2 801.7 1610.4 C 796.8 1612.6 789.4 1614.7 780 1616.5 C 775.9 1617.2 770.5 1618.4 768 1619 C 765.5 1619.6 758.1 1620.5 751.5 1621 C 744.9 1621.6 736.4 1622.5 732.5 1623 C 728.7 1623.5 719.2 1624.4 711.5 1625.1 C 698.6 1626.2 697.2 1626.1 693.3 1624.4 C 690.2 1623 689 1621.9 688.6 1619.7 C 687.5 1614.1 688 1608.5 690 1604.7 C 691.1 1602.7 691.7 1601 691.3 1601 C 690.8 1601 687.8 1601.9 684.5 1602.9 C 681.2 1604 675.8 1605.4 672.5 1606 C 664.2 1607.5 619.3 1609.2 609.1 1608.5 C 600.9 1607.8 600.7 1607.8 598.4 1610.6 C 597.1 1612.1 596 1613.7 596 1614.2 C 596 1614.7 594.9 1616.3 593.5 1617.8 C 592.1 1619.3 591 1620.8 591 1621.2 C 591 1621.7 590.2 1622.9 589.3 1623.9 C 586.4 1627 585.1 1628.4 584 1629.5 C 583.5 1630.1 579.5 1634.2 575.3 1638.7 C 567.6 1646.8 559.8 1652.4 549 1657.6 C 543.9 1660 542.8 1660.2 535 1659.6 C 528 1659.1 526.2 1658.6 524.7 1656.9 C 523.1 1654.8 522.5 1654.8 514.7 1655.6 C 510.2 1656.1 500.7 1656.5 493.5 1656.5 C 483.1 1656.5 479.9 1656.1 477.3 1654.7 C 475.5 1653.7 474 1652.4 474 1651.6 C 474 1650.6 472.9 1650.5 468.8 1651.2 C 465.9 1651.6 459 1652.1 453.5 1652.2 C 445.1 1652.4 442.8 1652.1 439 1650.3 C 434.1 1648 428.6 1643.4 427.7 1640.9 C 427.3 1639.6 424.9 1639.2 414.8 1638.7 C 402.8 1638.2 395.5 1636.5 388 1632.6 C 386.5 1631.8 379.9 1631 372 1630.6 C 364.6 1630.3 353.6 1629.3 347.5 1628.5 C 341.5 1627.7 330.6 1626.7 323.4 1626.4 C 311.8 1625.8 309.3 1626 301.5 1628 C 296.6 1629.2 291.5 1630.7 290.1 1631.2 C 280.7 1634.9 281.1 1634.9 268.9 1636 C 260.7 1636.8 256.8 1636.8 254.1 1635.9 C 239.7 1631.3 238.5 1630.1 239.2 1620.5 C 239.7 1615.3 240.2 1613.8 242.8 1611.2 C 244.4 1609.5 245.9 1607.7 246.1 1607.2 C 246.8 1605.4 262.5 1596.6 271.5 1593 C 272.6 1592.6 275.1 1591.5 277.2 1590.6 C 279.2 1589.7 281.2 1589 281.8 1589 C 282.3 1589 285 1588.3 287.6 1587.5 C 290.3 1586.7 298.6 1584.9 306 1583.6 C 317.5 1581.4 323.4 1581 346 1580.6 C 374.1 1580.1 432.3 1577.4 437.7 1576.4 C 439.5 1576.1 441.4 1575.2 442 1574.6 C 442.7 1573.6 441.3 1573 435.9 1572 C 432.1 1571.3 428.7 1570.2 428.3 1569.7 C 428 1569.2 427.3 1569.9 426.6 1571.2 C 425.6 1573.1 424.5 1573.6 420 1573.8 C 412 1574.3 399.3 1572.2 394.1 1569.5 C 384.4 1564.7 370.5 1560.7 355.4 1558.4 C 342 1556.4 322.7 1556.9 313.5 1559.5 C 310.2 1560.5 306 1561.5 304.2 1561.7 C 302.4 1562 300.7 1562.6 300.4 1563.1 C 300.1 1563.6 298.3 1564 296.4 1564 C 294.5 1564 292.1 1564.5 291 1565 C 289.9 1565.6 288.1 1566.5 287 1567 C 282.1 1569.5 267.1 1567.3 263.5 1563.6 C 260.9 1560.9 260.1 1549.6 262.3 1545.4 C 263.9 1542.3 270.8 1535 272.1 1535 C 272.5 1535 273.5 1534.4 274.2 1533.6 C 276.4 1531.4 286.7 1525.9 290.3 1524.9 C 308.7 1520.2 321 1519.1 353.9 1519 C 377.4 1519 398.5 1517.8 399.8 1516.5 C 401 1515.4 398.8 1513 396.6 1513 C 392 1513 387.7 1507.9 382.9 1496.8 C 378.3 1486 374.6 1481.3 367.1 1476.5 C 364.8 1475.1 361.9 1474 360.5 1474 C 359.1 1474 353.4 1472.9 347.8 1471.5 C 342.2 1470.1 337.1 1469 336.3 1469 C 335.5 1469 332.9 1468.1 330.5 1467 C 328.1 1465.9 323.7 1464.5 320.8 1463.8 C 317.9 1463.2 314.8 1462.1 313.9 1461.3 C 313.1 1460.6 312 1460 311.6 1460 C 311.2 1460 305.7 1457.5 299.5 1454.5 C 293.2 1451.5 287.4 1449 286.6 1449 C 285.8 1449 284.5 1448.4 283.8 1447.6 C 283 1446.9 281.4 1445.9 280.2 1445.6 C 279 1445.2 278 1444.4 278 1443.9 C 278 1443.4 277.1 1443 276.1 1443 C 275 1443 273.8 1442.5 273.5 1442 C 273.1 1441.4 271.1 1439.8 268.9 1438.4 C 266.8 1437.1 265 1435.6 265 1435.2 C 265 1434.8 262.5 1431.7 259.5 1428.5 C 253.4 1421.9 252.4 1418.6 253.2 1408 C 253.6 1403.1 254.2 1401.4 256.6 1398.9 C 258.2 1397.2 260.4 1395.4 261.4 1394.8 C 262.5 1394.2 270.8 1393.1 279.9 1392.4 C 289.1 1391.7 298.5 1390.4 300.9 1389.6 C 303.3 1388.7 306.8 1388 308.8 1388 C 312.2 1388 326.4 1383.7 328.5 1382 C 330 1380.8 349.8 1370.7 354.5 1368.8 C 356.7 1367.9 361.7 1366.2 365.5 1365 C 372 1363 372.8 1362.5 374.8 1358.7 C 376 1356.4 377 1354.1 377 1353.6 C 377 1349.8 393.8 1316.5 397.8 1312.4 C 401.4 1308.7 403.8 1308.3 409.9 1310.1 C 412.9 1311 414 1312.1 415.4 1315.4 C 418.5 1322.4 422.9 1340.3 423 1346.1 C 423 1350.8 425.6 1352.1 428.2 1348.8 C 429.2 1347.5 430 1345.8 430 1344.9 C 430 1344 430.7 1342.7 431.5 1342 C 432.3 1341.3 433 1340.4 433 1339.9 C 433 1339.4 434.2 1337.1 435.6 1334.9 C 437 1332.6 440.2 1326.9 442.7 1322.2 C 451.1 1306.2 455.2 1302 462.4 1302 C 466.8 1302 469.7 1304.9 470.4 1309.9 C 471 1314.2 473 1348.2 473.3 1359.4 L 473.5 1367.3 L 478.4 1369.9 C 481.1 1371.3 484.9 1374 486.8 1375.8 C 488.8 1377.5 490.8 1379 491.2 1379 C 491.6 1379 492 1379.6 492 1380.4 C 492 1381.1 493 1382.5 494.3 1383.3 C 502.1 1389 510.8 1394 517.2 1396.4 C 535.5 1403.3 537.3 1404.5 538.4 1410.1 C 539 1413.4 539.5 1413.9 544.3 1415.3 C 547.1 1416.2 554.7 1417.8 561 1419 C 567.3 1420.1 575.2 1421.6 578.5 1422.2 C 590.2 1424.6 620.8 1423.1 634 1419.4 C 655.4 1413.5 669 1409 672.2 1406.9 C 673.6 1405.8 675.1 1405 675.5 1405 C 675.8 1405 677.6 1403.9 679.4 1402.5 C 681.2 1401.1 683.2 1400 683.8 1400 C 684.4 1400 685 1399.7 685.2 1399.3 C 685.6 1398.2 691.9 1395 693.6 1395 C 694.4 1395 695 1394.6 695 1394 C 695 1393.5 695.6 1393 696.3 1393 C 697.1 1393 698.5 1392.1 699.5 1391 C 700.5 1389.9 701.9 1389 702.6 1389 C 703.3 1389 704 1388.6 704.2 1388.1 C 704.5 1387.2 710.6 1383.3 717.8 1379.3 C 720.4 1377.9 722.9 1376.1 723.3 1375.4 C 723.7 1374.6 724.5 1374 725.1 1374 C 726.2 1374 732.3 1369.9 732.8 1368.8 C 733 1368.3 733.6 1368 734.1 1368 C 735.3 1368 744.9 1360.3 754 1352.1 C 757.6 1348.8 762.1 1344.9 764 1343.3 C 765.9 1341.8 768.5 1339.5 769.9 1338.2 C 771.3 1336.9 773.8 1335.2 775.6 1334.4 C 777.3 1333.6 779.2 1331.8 779.8 1330.5 C 780.5 1329.1 781.5 1328 782.1 1328 C 782.7 1328 784.7 1326.8 786.5 1325.3 C 792.4 1320.2 798.3 1315.5 800.9 1313.8 C 802.3 1312.9 805.5 1310.5 808 1308.6 C 810.5 1306.6 815 1303.3 818 1301.3 C 821 1299.3 823.7 1297.4 824 1297 C 824.3 1296.6 825.9 1295.6 827.5 1294.7 C 829.2 1293.9 831.6 1292.1 833 1290.9 C 834.4 1289.6 837.4 1287.6 839.5 1286.5 C 841.7 1285.4 844 1284 844.6 1283.4 C 845.3 1282.8 847.3 1281.7 849.2 1281 C 851 1280.3 854.4 1278.9 856.8 1277.9 C 859.2 1276.8 862.9 1275.2 865.2 1274.3 C 867.5 1273.4 870.2 1271.8 871.2 1270.8 C 872.2 1269.8 873.8 1269 874.8 1269 C 875.9 1269 878.2 1268.3 880 1267.3 C 888.7 1263 915.1 1260 926.8 1261.9 C 931 1262.6 935.8 1263.9 937.3 1264.7 C 943 1267.6 947.4 1264.9 957.8 1252 C 959.9 1249.5 963 1245.9 964.7 1244 C 966.5 1242.1 968 1239.7 968 1238.8 C 968 1237.9 969.1 1236.3 970.5 1235.2 C 971.9 1234.1 973 1232.9 973 1232.4 C 973 1230.7 979.6 1222.1 981.3 1221.7 C 982.2 1221.4 983 1220.3 983 1219.2 C 983 1216.8 986 1210.8 987.8 1209.7 C 988.4 1209.3 989 1208 989 1207 C 989 1206 989.5 1204.8 990 1204.5 C 991 1203.9 993.7 1198.3 995.9 1192 C 996.6 1190.1 997.6 1187.6 998 1186.5 C 998.5 1185.4 999.4 1182 1000 1179 C 1000.7 1176 1001.6 1172.8 1002.1 1171.8 C 1002.5 1170.9 1003 1156.1 1003.1 1138.8 C 1003.3 1107 1003.2 1105.5 999.1 1086.5 C 997.5 1079 995.2 1067.5 994.5 1063.8 C 994.2 1061.8 993.3 1058.8 992.5 1057.3 C 991.7 1055.8 991 1053.5 991 1052.2 C 991 1051 990.6 1049.2 990.1 1048.2 C 989.6 1047.3 987.5 1041.1 985.5 1034.5 C 978.6 1011.8 977.8 1009.5 975.9 1005.3 C 974.9 1002.9 974 1000.6 974 1000.2 C 974 999.2 963 983.4 960.7 981 C 956.9 977.1 955 972.4 955 966.9 C 955 961.9 955.3 961.2 957.5 960.2 C 962 958.1 968.3 959.2 975.2 963 C 976.2 963.6 980 965.6 983.7 967.6 C 987.4 969.6 990.7 971.5 991 971.8 C 992 973.1 1000.8 979 1001.8 979 C 1002.3 979 1004 980 1005.6 981.2 C 1007.1 982.5 1011 985 1014.1 987 C 1021.6 991.5 1029.1 998 1041.8 1011 C 1052.4 1021.7 1067 1039 1067 1040.8 C 1067 1041.3 1067.7 1042.3 1068.5 1043 C 1069.7 1044 1075.6 1052.2 1078.5 1056.9 C 1079.1 1057.8 1079.8 1058.7 1080.2 1059 C 1081.6 1060.1 1088.9 1073.9 1091.3 1080 C 1094.1 1087.2 1095 1090.6 1095.6 1096.5 C 1096.2 1101.4 1093.4 1107.4 1090.4 1107.8 L 1088.3 1108.1 L 1090.3 1113.8 C 1094.9 1127.4 1095.4 1130.4 1095.4 1143.4 L 1095.4 1156.3 L 1092.3 1159 C 1090.6 1160.6 1089.3 1162 1089.6 1162.2 C 1089.8 1162.4 1091.1 1166.6 1092.6 1171.6 C 1095.1 1180.1 1095.2 1181.2 1094.6 1196.3 C 1094.2 1206 1093.5 1213.3 1092.6 1215.3 C 1091 1219.1 1086.4 1224.3 1083.3 1225.9 C 1081.2 1227 1081 1227.8 1081 1234.3 C 1081 1241.1 1078.7 1252.2 1075.8 1260 C 1073.9 1265.1 1068.4 1274.3 1065.7 1277.1 C 1064.4 1278.4 1062.8 1280.5 1062.1 1281.8 C 1061.5 1283 1060.3 1284 1059.5 1284 C 1058.7 1284 1058 1284.5 1058 1285 C 1058 1285.6 1057.4 1286 1056.7 1286 C 1056 1286 1055 1286.8 1054.3 1287.9 C 1052.1 1291.4 1039.7 1296.8 1031.9 1297.6 C 1024.9 1298.3 1024.3 1298.6 1012.7 1306.6 C 1006.1 1311.2 999.8 1315 998.9 1315 C 997.9 1315 996.9 1315.4 996.5 1315.9 C 996.2 1316.4 993.5 1317.6 990.5 1318.5 C 987.5 1319.3 985 1320.3 985 1320.7 C 985 1321.4 986.5 1327.3 988.6 1334.5 C 991.8 1345.6 994.9 1368.7 995 1381 C 995 1386.2 995.5 1392.3 996.1 1394.5 C 996.7 1396.7 997.8 1401.4 998.6 1405 C 999.3 1408.6 1000.4 1413.5 1000.9 1416 C 1001.5 1418.5 1001.9 1425 1002 1430.6 C 1002 1446.1 997.5 1457.1 990.5 1458.4 C 986.6 1459.2 986 1460.7 986 1471 C 986 1479.4 983.5 1494.3 982 1494.8 C 981.4 1495 980.7 1496.9 980.4 1499.1 C 979.5 1504.7 973.5 1510 968.1 1510 C 964.2 1510 964.2 1510 963.1 1515.1 C 961.8 1521.2 956.4 1531 951.6 1536.3 C 948.9 1539.2 947.3 1540 944.7 1540 C 940.5 1540 939.2 1541.4 934.6 1551.1 C 929.2 1562.3 928.3 1573.5 929.9 1608.9 C 931.2 1638 930.6 1654.2 928.4 1656.5 C 927.6 1657.2 927 1659 927 1660.4 C 927 1666.2 920.6 1678 917.5 1678 C 916.8 1678 915.5 1678.9 914.5 1680 C 913.5 1681.1 911.9 1682 910.9 1682 C 909.9 1682 908.9 1682.4 908.6 1682.8 C 908.3 1683.3 903.6 1684.2 898 1684.9 C 892.5 1685.6 888 1686.6 888 1687 C 888 1687.5 885.6 1688 882.8 1688.3 C 875.8 1689 869.4 1690.5 852.5 1695.3 C 844.8 1697.4 835.4 1699.6 831.5 1700.2 C 821.6 1701.5 792.8 1702.2 791 1701.1 Z  M 732 1588 C 733.3 1587.1 733.3 1587 732 1587.1 C 731.2 1587.1 729.6 1587.5 728.5 1588 L 726.5 1588.9 L 728.5 1588.9 C 729.6 1588.9 731.2 1588.5 732 1588 Z  M 753.8 1585.5 C 757.3 1584.7 761.3 1583.4 762.9 1582.6 C 767.2 1580.3 772 1575.7 772 1573.8 C 772 1572.4 771.4 1572.2 768.8 1572.7 C 767 1573 764.4 1573.9 763 1574.7 C 761.6 1575.4 760 1576 759.3 1576 C 758.7 1576 758 1576.4 757.8 1576.8 C 757.7 1577.2 754.1 1578.8 749.9 1580.3 C 745.7 1581.8 740.3 1583.9 737.9 1584.9 L 733.5 1586.9 L 740.5 1586.9 C 744.4 1586.9 750.3 1586.3 753.8 1585.5 Z  M 757.6 1521.3 C 756.8 1517 755.6 1510.1 755 1506 C 754.5 1501.9 753.1 1492.4 752 1485 C 749.2 1465.8 749.1 1466.8 755.5 1461.9 C 761.1 1457.7 763 1455.4 758.5 1458.4 C 757.2 1459.3 754.5 1460 752.6 1460 C 749.7 1460 748.9 1459.6 748.6 1457.8 C 747.2 1451.3 745.9 1436.8 745.3 1423 L 744.7 1407.5 L 749.9 1404 C 770.2 1390.4 785 1379.6 785 1378.4 C 785 1376.4 784.1 1376.6 778 1380.4 C 775 1382.3 769.8 1385.5 766.5 1387.5 C 763.2 1389.5 755.8 1394.2 750 1398 C 744.2 1401.8 737.5 1406.1 735 1407.6 C 719.3 1417.1 702 1429.3 702 1430.8 C 702.1 1431.7 702.9 1434 703.8 1435.7 L 705.5 1439 L 716.9 1430 C 726.6 1422.3 728.8 1421 732 1421 C 735.3 1421 735.8 1421.3 736.3 1423.8 C 736.7 1426.2 738 1432.4 742.5 1455 C 744.6 1465.5 744.5 1468.2 741.8 1470 C 739.5 1471.4 739.5 1471.5 743 1472 C 746 1472.4 746.6 1472.9 747.1 1476 C 748.5 1483.6 754.1 1510.7 755 1514.5 C 755.5 1516.7 756.4 1521.1 757.1 1524.3 C 757.7 1527.5 758.4 1529.9 758.7 1529.7 C 758.9 1529.4 758.5 1525.6 757.6 1521.3 Z  M 808.6 1491.7 C 814 1488.3 820.7 1484.1 823.4 1482.5 C 826.2 1480.8 829.8 1478.6 831.6 1477.5 C 833.4 1476.4 840.3 1472.2 847 1468.1 C 857.8 1461.5 861.1 1458.3 856.8 1458.6 C 856 1458.7 849.5 1462.5 842.4 1467.2 C 819.6 1482.2 805.4 1490 801 1490 C 798.9 1490 796.9 1489.6 796.6 1489.2 C 796.1 1488.4 787.9 1451.5 784.5 1434.5 C 783.6 1430.1 782.5 1426.1 782 1425.7 C 781.6 1425.2 779.8 1426.1 778.1 1427.7 L 775.1 1430.5 L 778.9 1443.5 C 783.3 1458.1 787.4 1470.7 792.6 1485.5 C 794.5 1491 796.3 1496.1 796.5 1496.8 C 797.2 1498.7 798.1 1498.4 808.6 1491.7 Z  M 719 1486.9 C 721.6 1484.6 720.9 1484.9 716.3 1488 C 712.8 1490.2 710 1492.3 710 1492.6 C 710 1493.4 715.2 1490.1 719 1486.9 Z  M 872.6 1477.7 C 877 1470.5 882.6 1461 885.1 1456.7 C 887.5 1452.5 892.5 1444.6 896.1 1439.2 C 902.4 1430 902.9 1429.5 906.6 1429.2 C 910.1 1428.9 911.8 1429.9 924.1 1438.7 C 931.6 1444.1 942.1 1451.9 947.4 1456 C 956.9 1463.5 959.6 1465.1 958.9 1463.2 C 958.6 1462.4 943.9 1450.6 933.1 1442.5 C 931.6 1441.4 926.1 1437 920.7 1432.6 C 907.2 1421.7 906.9 1423.5 926.6 1393.9 C 935.1 1381 942.2 1370.1 942.3 1369.6 C 942.4 1369.1 942.1 1368.6 941.5 1368.4 C 941 1368.2 938.7 1370.8 936.5 1374.3 C 934.4 1377.7 927.2 1388.7 920.5 1398.8 C 909 1416.3 908.4 1417 905.2 1417 C 901.7 1417 894.8 1412.1 873.1 1394.2 C 864.1 1386.8 863 1386.1 862.1 1387.8 C 861.3 1389.4 862.8 1391 873.3 1399.6 C 880 1405 888.7 1412.3 892.7 1415.8 C 902 1423.9 902.1 1425.3 894.8 1437.7 C 887.3 1450.6 873.4 1472.3 866.8 1481.5 C 863.7 1485.8 861.4 1489.8 861.6 1490.2 C 863 1492.4 865.2 1489.9 872.6 1477.7 Z  M 729 1479.4 C 729 1479.1 727.7 1479.8 726 1481 C 724.4 1482.2 723 1483.4 723 1483.6 C 723 1483.9 724.4 1483.2 726 1482 C 727.7 1480.8 729 1479.6 729 1479.4 Z  M 824.6 1453.2 C 825.7 1452.6 824.6 1452.4 821.3 1452.7 L 816.2 1453.2 L 814.5 1443.7 C 812.7 1433.4 812.7 1431.1 815 1429.9 C 815.8 1429.5 821.8 1426.6 828.4 1423.6 C 842.1 1417.1 843.6 1414.9 830.2 1420.9 C 819.6 1425.8 813.3 1426.4 812.6 1422.8 C 811.5 1417.8 810 1403.4 810 1398.4 L 810 1393.1 L 834.6 1380.9 C 867.6 1364.6 870 1363.2 870 1359.7 L 870 1357 L 864.3 1360.2 C 861.1 1362 855.8 1365.1 852.5 1367.2 C 847 1370.6 825.6 1383 812.3 1390.6 C 809.3 1392.3 806.4 1394.2 806 1394.6 C 805.4 1395.2 806.1 1401.8 807.5 1410.5 C 808.9 1418.8 810 1426.5 810 1427.7 C 810 1429.1 808.7 1430.6 806.3 1432.2 L 802.5 1434.5 L 806.7 1434.8 C 811.5 1435.2 811.3 1434.8 813.6 1447 C 814.4 1451.6 815.4 1455.8 815.6 1456.2 C 816.1 1456.9 820.8 1455.3 824.6 1453.2 Z  M 866.5 1434.9 C 867 1434.4 866 1434.5 864.2 1435.1 C 862.5 1435.7 861 1436.4 861 1436.7 C 861 1437.4 865.3 1435.9 866.5 1434.9 Z " fill="rgb(0,0,0)" vector-effect="non-scaling-stroke" stroke-width="3" stroke="rgb(255,255,255)" stroke-linejoin="miter" stroke-linecap="butt" stroke-miterlimit="4"/><path d=" M 755.9 1534.4 C 755.3 1532.8 754.2 1528.6 753.5 1525 C 752.8 1521.4 750.5 1510.4 748.5 1500.5 C 746.5 1490.6 744.6 1481.4 744.3 1480 C 743.3 1474.8 743.2 1474.8 738.3 1478.2 C 735.6 1480 730.1 1484 726 1487 C 721.9 1490.1 716.6 1493.9 714.2 1495.5 L 709.9 1498.3 L 707 1495.5 C 705.3 1493.9 704 1492.3 704 1492 C 704 1491.5 726.1 1475.6 740.2 1465.9 C 740.6 1465.6 740.3 1462 739.5 1457.9 C 734.8 1434.5 733.7 1429.2 733.3 1426.8 C 733 1425.2 732.4 1424 732 1424 C 731.5 1424 727.4 1427 722.9 1430.7 C 712.2 1439.2 705.5 1444 704.3 1444 C 703.2 1444 697 1430.9 697 1428.7 C 697 1427.6 712.1 1417.3 735 1402.7 C 738.6 1400.5 746.5 1395.4 752.5 1391.4 C 758.6 1387.5 764.9 1383.5 766.5 1382.6 C 768.2 1381.7 773 1378.7 777.3 1376 C 781.6 1373.2 785.5 1371 785.9 1371 C 787 1371 789.4 1379.6 788.7 1381.3 C 788.3 1382.4 771 1394.8 752.9 1407 L 747.7 1410.5 L 748.4 1423.5 C 749.1 1437.2 751.2 1455.6 752.2 1456.6 C 752.5 1456.9 754.6 1456 756.9 1454.6 C 759.1 1453.2 761.4 1452 761.9 1452 C 762.9 1452 767 1456.8 767 1457.9 C 767 1458.3 763.9 1460.9 760 1463.8 C 753.8 1468.4 753.1 1469.3 753.5 1471.7 C 753.8 1473.3 754.7 1479.5 755.6 1485.5 C 756.4 1491.6 757.8 1500.8 758.5 1506 C 759.8 1514.7 762.4 1528.3 763.5 1532 C 764.2 1534.2 762.9 1535.7 759.8 1536.5 C 757.4 1537.1 756.9 1536.8 755.9 1534.4 Z " fill="rgb(255,255,255)"/><path d=" M 795.2 1502.7 C 793.4 1500.6 780.4 1462.1 774.3 1441 L 770.8 1428.5 L 776.6 1423.3 C 779.9 1420.4 783 1418 783.5 1418 C 784.1 1418 785.3 1421.7 786.3 1426.3 C 793.1 1458.1 799.2 1485.5 799.6 1486.2 C 799.9 1486.6 800.5 1487 801 1487 C 802.4 1487 825.2 1473.5 839 1464.5 C 856.6 1453.1 856.8 1453 858.4 1453 C 860.3 1453 864.1 1461.1 862.9 1462.6 C 862.1 1463.5 842.9 1475.7 836.2 1479.5 C 835.2 1480.1 832.2 1481.9 829.5 1483.6 C 796.6 1504.1 796.4 1504.2 795.2 1502.7 Z " fill="rgb(255,255,255)"/><path d=" M 859.9 1493.7 C 858.1 1492.4 856.6 1490.7 856.6 1489.8 C 856.7 1489 859.6 1484.3 863.1 1479.4 C 870.2 1469.5 883.8 1448.4 892 1434.5 L 897.2 1425.5 L 892.5 1421.2 C 889.9 1418.9 880.6 1411.1 871.9 1403.9 C 863.1 1396.7 856 1390.4 856 1389.8 C 856 1388.5 861.9 1381 863 1381 C 863.5 1381 869.2 1385.4 875.7 1390.8 C 894.4 1406.3 905.2 1414.3 905.9 1413.3 C 912 1404.1 927.3 1381.1 932.3 1373.3 C 936 1367.6 939.5 1363 940.3 1363 C 941 1363 943.1 1364.3 945 1365.8 L 948.3 1368.6 L 931.7 1393.6 C 922.6 1407.3 914.8 1419.3 914.5 1420.1 C 914 1421.5 923.4 1430 936.1 1439.5 C 950 1449.9 964 1461.4 964 1462.4 C 964 1463 962.8 1465.1 961.2 1466.9 L 958.5 1470.2 L 947 1461.1 C 931.9 1449.1 909 1432.7 907.2 1432.6 C 905.7 1432.5 894.9 1447.8 888.5 1459.1 C 879.6 1474.9 866.3 1495.5 864.9 1495.8 C 864.1 1495.9 861.8 1495 859.9 1493.7 Z " fill="rgb(255,255,255)"/><path d=" M 811.6 1455.1 C 810.7 1451.2 810 1447.5 810 1446.8 C 810 1446.1 809.5 1443.8 808.9 1441.7 C 807.8 1437.6 808 1437.7 801.9 1439.6 C 800.8 1440 800.1 1439.4 799.6 1437.7 C 799.3 1436.3 798.7 1434.5 798.4 1433.7 C 798 1432.6 799.2 1431.4 802.2 1429.6 L 806.6 1427 L 804.3 1412.8 C 801 1392.7 801.1 1392.4 808.6 1388 C 830.5 1375.4 844.5 1367.3 851 1363.3 C 855.1 1360.8 860.5 1357.6 863 1356.1 C 865.5 1354.6 868.7 1352.6 870.3 1351.6 L 873 1349.8 L 873 1357.6 L 873 1365.5 L 867.6 1368.6 C 864.7 1370.3 851.2 1377.2 837.6 1383.9 C 816.2 1394.5 813 1396.4 813 1398.4 C 813 1401 814.9 1416.4 815.6 1419.8 C 816.2 1422.8 817.8 1422.5 830.5 1416.4 C 835.8 1413.9 840.7 1412.1 841.4 1412.3 C 842.6 1412.8 844.6 1419.8 843.8 1420.5 C 843 1421.3 823 1430.9 820.9 1431.5 C 816.3 1432.9 816.1 1433.5 817.7 1441.8 C 818.5 1446 819.3 1449.6 819.5 1449.8 C 819.8 1450.1 832.1 1444.9 851.2 1436.4 C 863.4 1431 868.9 1429 869.4 1429.8 C 869.6 1430.2 870.1 1432.2 870.5 1434.2 C 871.1 1437.4 870.9 1437.9 868.8 1438.5 C 865.5 1439.5 843.2 1449.1 829.2 1455.4 C 811.9 1463.3 813.5 1463.3 811.6 1455.1 Z " fill="rgb(255,255,255)"/><path d=" M 356.9 1408.2 C 354.2 1405.8 353.8 1404.9 354.4 1402.6 C 355.2 1399.3 357.4 1399.6 357.9 1403.1 C 358 1404.4 358.7 1405.8 359.3 1406.2 C 360.7 1407.1 364.9 1404.9 367.9 1401.6 C 370.7 1398.6 373 1398.2 373 1400.8 C 373 1402.9 363.5 1410.8 360.8 1411 C 360.4 1411 358.6 1409.7 356.9 1408.2 Z " fill="rgb(255,255,255)"/></g></svg>